<?xml version="1.0" encoding="UTF-8" standalone="no"?>
<!-- Created with Inkscape (http://www.inkscape.org/) -->

<svg
   xmlns:dc="http://purl.org/dc/elements/1.1/"
   xmlns:cc="http://creativecommons.org/ns#"
   xmlns:rdf="http://www.w3.org/1999/02/22-rdf-syntax-ns#"
   xmlns:svg="http://www.w3.org/2000/svg"
   xmlns="http://www.w3.org/2000/svg"
   xmlns:sodipodi="http://sodipodi.sourceforge.net/DTD/sodipodi-0.dtd"
   xmlns:inkscape="http://www.inkscape.org/namespaces/inkscape"
   width="48pt"
   height="48pt"
   viewBox="0 0 16.933334 16.933333"
   version="1.1"
   id="svg979"
   inkscape:version="0.92.4 (5da689c313, 2019-01-14)"
   sodipodi:docname="7 - Honeycomb.svg"
   inkscape:export-filename="E:\TR Design Studio Creative\Project Design\TR Creative Design\Icon Design\Project Hiring\Icon Icons\Project - 001\001 - Agriculture And Farming\Solid\Export\7 - Honeycomb.png"
   inkscape:export-xdpi="768"
   inkscape:export-ydpi="768">
  <defs
     id="defs973" />
  <sodipodi:namedview
     id="base"
     pagecolor="#ffffff"
     bordercolor="#666666"
     borderopacity="1.0"
     inkscape:pageopacity="0.0"
     inkscape:pageshadow="2"
     inkscape:zoom="6.0435533"
     inkscape:cx="32"
     inkscape:cy="32"
     inkscape:document-units="pt"
     inkscape:current-layer="layer1"
     showgrid="false"
     units="pt"
     inkscape:window-width="1366"
     inkscape:window-height="716"
     inkscape:window-x="-8"
     inkscape:window-y="-8"
     inkscape:window-maximized="1"
     inkscape:snap-bbox="true"
     inkscape:bbox-nodes="true"
     inkscape:snap-nodes="false"
     showguides="false">
    <inkscape:grid
       type="xygrid"
       id="grid1526" />
    <sodipodi:guide
       position="0.97013909,15.963209"
       orientation="56.666615,0"
       id="guide1528"
       inkscape:locked="false" />
    <sodipodi:guide
       position="0.97013909,0.97016731"
       orientation="0,56.666667"
       id="guide1530"
       inkscape:locked="false" />
    <sodipodi:guide
       position="15.963195,0.97016731"
       orientation="-56.666615,0"
       id="guide1532"
       inkscape:locked="false" />
    <sodipodi:guide
       position="15.963195,15.963209"
       orientation="0,-56.666667"
       id="guide1534"
       inkscape:locked="false" />
  </sodipodi:namedview>
  <metadata
     id="metadata976">
    <rdf:RDF>
      <cc:Work
         rdf:about="">
        <dc:format>image/svg+xml</dc:format>
        <dc:type
           rdf:resource="http://purl.org/dc/dcmitype/StillImage" />
        <dc:title></dc:title>
      </cc:Work>
    </rdf:RDF>
  </metadata>
  <g
     inkscape:label="Layer 1"
     inkscape:groupmode="layer"
     id="layer1"
     transform="translate(0,-280.06668)">
    <path
       style="color:#000000;font-style:normal;font-variant:normal;font-weight:normal;font-stretch:normal;font-size:medium;line-height:normal;font-family:sans-serif;font-variant-ligatures:normal;font-variant-position:normal;font-variant-caps:normal;font-variant-numeric:normal;font-variant-alternates:normal;font-feature-settings:normal;text-indent:0;text-align:start;text-decoration:none;text-decoration-line:none;text-decoration-style:solid;text-decoration-color:#000000;letter-spacing:normal;word-spacing:normal;text-transform:none;writing-mode:lr-tb;direction:ltr;text-orientation:mixed;dominant-baseline:auto;baseline-shift:baseline;text-anchor:start;white-space:normal;shape-padding:0;clip-rule:nonzero;display:inline;overflow:visible;visibility:visible;opacity:1;isolation:auto;mix-blend-mode:normal;color-interpolation:sRGB;color-interpolation-filters:linearRGB;solid-color:#000000;solid-opacity:1;vector-effect:none;fill:#000000;fill-opacity:1;fill-rule:nonzero;stroke:none;stroke-width:0.529167;stroke-linecap:round;stroke-linejoin:round;stroke-miterlimit:4;stroke-dasharray:none;stroke-dashoffset:0;stroke-opacity:1;color-rendering:auto;image-rendering:auto;shape-rendering:auto;text-rendering:auto;enable-background:accumulate"
       d="m 2.6748134,281.03683 -1.5813163,0.9124 v 1.82479 l 1.5806615,0.91109 1.5819712,-0.9124 v -1.82348 z m 3.8610029,0 -1.5780435,0.9124 v 1.82479 c 0.5259952,0.3034 1.0521395,0.60688 1.5780435,0.91044 l 1.5813152,-0.91175 v -1.82348 z m 3.8616567,0 -1.5786969,0.9124 v 1.82479 l 1.5793519,0.91109 1.580661,-0.91109 v -1.82479 z m 3.861003,0 -1.577389,0.91174 v 2.02638 c 0.0073,0.13368 -0.08119,0.24854 -0.176719,0.3037 l -1.75411,1.01385 v 1.8235 l 1.75411,1.01319 c 0.13649,0.0878 0.176719,0.15284 0.176719,0.30696 v 5.13078 c 0,0.34412 0.264603,0.61131 0.608702,0.61131 h 0.0079 c 0.344099,0 0.61132,-0.26719 0.61132,-0.61131 v -5.82326 c 0,-0.46854 0.702951,-0.46854 0.702953,0 v 2.59975 c 0,0.34408 0.264714,0.6087 0.613938,0.6087 0.349221,0 0.613936,-0.26462 0.613936,-0.6087 v -8.39419 z m -11.5915166,0.57793 c 0.071207,-0.003 0.1415176,0.0166 0.201591,0.055 l 0.7291339,0.43984 c 0.400896,0.24227 0.037643,0.84377 -0.3632573,0.6015 l -0.7304422,-0.44311 c -0.3017122,-0.1774 -0.186719,-0.63849 0.1629746,-0.65321 z m 12.1157846,1.32475 c 0.196837,-0.003 0.356665,0.15725 0.354749,0.35409 v 1.40526 c 0,0.46854 -0.702951,0.46854 -0.702951,0 v -1.40526 c -0.0019,-0.19388 0.154316,-0.35218 0.348202,-0.35409 z m -10.1771018,1.44191 -1.5813163,0.9137 v 1.82088 l 1.5819711,0.91239 1.5800068,-0.91175 v -1.82152 z m 3.8610034,0 -1.5780438,0.91174 v 1.82348 l 1.577389,0.91175 c 0.5277784,-0.30314 1.0549185,-0.60735 1.5819692,-0.91175 v -1.82152 z m -0.017669,0.58709 c 0.070231,-0.003 0.1398331,0.0148 0.1996279,0.0517 l 0.7304422,0.44311 c 0.401086,0.24176 0.038478,0.84326 -0.3626025,0.60149 l -0.7310984,-0.44375 c -0.3000317,-0.17787 -0.184804,-0.63682 0.1636295,-0.65256 z m 6.3337714,0.7802 c 0.196838,-0.003 0.356666,0.1579 0.35475,0.35474 v 0.35213 c 0,0.46854 -0.702953,0.46854 -0.702953,0 v -0.35213 c -0.0019,-0.19389 0.154317,-0.35284 0.348203,-0.35474 z M 2.6741645,287.726 1.093503,288.6384 v 1.82414 l 1.581315,0.9124 1.5813164,-0.9124 v -1.82414 z m 3.8623112,0 -1.5786983,0.91044 v 2.08725 c 0,0.34642 0.268157,0.61459 0.6145931,0.61459 0.3464358,0 0.6139379,-0.26817 0.6139379,-0.61459 -1.3e-6,-0.38441 -3.686e-4,-0.77126 6.702e-4,-1.15456 0.00405,-0.1752 0.1361676,-0.32019 0.3102413,-0.34036 0.2111028,-0.0244 0.3952874,0.14228 0.3914015,0.35476 v 2.36936 c 0,0.34642 0.2675036,0.61327 0.6139383,0.61327 0.3464347,0 0.6145927,-0.26685 0.6145927,-0.61327 -3.28e-5,-1.10535 0,-2.20974 0,-3.31449 z m 3.8616573,0 c -0.5265641,0.30366 -1.0530455,0.6083 -1.5793522,0.9124 v 1.82414 l 1.5786982,0.9124 1.581315,-0.9124 v -1.82414 z m -7.7409887,0.5858 c 0.070434,-0.003 0.1394076,0.0166 0.1989744,0.0543 l 0.7304422,0.43983 c 0.4010798,0.24177 0.038478,0.84327 -0.3626037,0.6015 l -0.7310959,-0.44311 c -0.3002632,-0.17806 -0.1844797,-0.63742 0.164283,-0.65254 z m 7.7226617,0 c 0.07045,-0.003 0.140061,0.0166 0.199627,0.0543 l 0.729788,0.43983 c 0.401009,0.24179 0.0384,0.84329 -0.362603,0.6015 l -0.731097,-0.44311 c -0.3002627,-0.17806 -0.184479,-0.63742 0.164285,-0.65254 z m -4.7753662,4.70009 a 0.335147,0.335147 0 0 0 -0.2768605,0.17084 c 0,0 -0.1801838,0.32005 -0.3612944,0.69247 -0.09056,0.18621 -0.1829662,0.387 -0.254607,0.57401 -0.071637,0.18701 -0.1309039,0.343 -0.1309039,0.54129 0,0.56972 0.4689843,1.03937 1.0387204,1.03937 0.5697348,0 1.0387202,-0.46965 1.0387202,-1.03937 0,-0.19829 -0.061885,-0.35428 -0.1335218,-0.54129 -0.071637,-0.18701 -0.1614345,-0.3878 -0.2519892,-0.57401 -0.1811106,-0.37242 -0.361294,-0.69247 -0.361294,-0.69247 a 0.335147,0.335147 0 0 0 -0.3069698,-0.17084 z"
       id="path1504"
       inkscape:connector-curvature="0" />
  </g>
</svg>
