<?xml version="1.0" encoding="UTF-8"?>
<svg width="545px" height="201px" viewBox="0 0 545 201" version="1.1" xmlns="http://www.w3.org/2000/svg" xmlns:xlink="http://www.w3.org/1999/xlink">
    <!-- Generator: Sketch 54.1 (76490) - https://sketchapp.com -->
    <title>EPAM_LOGO_White</title>
    <desc>Created with Sketch.</desc>
    <g id="Page-1" stroke="none" stroke-width="1" fill="none" fill-rule="evenodd">
        <g id="EPAM_LOGO_White" fill="#FFFFFE">
            <path d="M102.7,89.55 L102.8,126.15 C102.8,135.45 107.3,140.05 116.2,140.05 L120.1,140.05 C129,140.05 133.5,135.45 133.5,126.15 L133.5,108.15 L154,108.15 L154,125.25 C154,148.75 142.6,160.75 120,160.75 L115.5,160.75 C92.9,160.75 81.5,148.85 81.5,128.05 L81.5,38.55 C81.5,12.25 92.9,0.35 115.5,0.35 L120,0.35 C142.6,0.35 154,12.25 154,35.75 L153.9,89.45 L102.7,89.45 L102.7,89.55 Z M102.7,68.25 L132.8,68.25 L132.8,34.95 C132.8,25.65 128.4,20.95 119.4,20.95 L116,20.95 C107.1,20.95 102.6,25.65 102.6,34.95 L102.6,68.25 L102.7,68.25 L102.7,68.25 Z" id="Fill-1"></path>
            <path d="M167.7,2.15 L188.9,2.15 L188.9,12.35 C193.9,6.85 202.5,0.45 214.8,0.45 C232.9,0.45 241.8,12.95 241.8,31.55 L241.8,129.75 C241.8,148.35 232.9,160.85 214.8,160.85 C202.5,160.85 193.9,154.75 188.9,149.55 L188.9,200.15 L167.7,200.15 L167.7,2.15 Z M188.9,131.65 C194.7,136.85 201.4,139.75 208.4,139.75 C216.2,139.75 220.7,135.95 220.7,126.95 L220.7,33.95 C220.7,24.95 216.2,21.15 208.4,21.15 C201.4,21.15 194.7,24.05 188.9,29.25 L188.9,131.65 L188.9,131.65 Z" id="Fill-2"></path>
            <path d="M254.6,104.35 C254.6,84.85 260.7,77.05 276.9,71.25 L305.3,61.05 L305.3,34.95 C305.3,25.65 300.8,20.75 291.9,20.75 L288.5,20.75 C279.6,20.75 275.1,25.65 275.1,34.95 L275.1,57.15 L254.5,57.15 L254.5,35.85 C254.5,12.35 265.9,0.45 288.5,0.45 L292.5,0.45 C315.1,0.45 326.5,12.35 326.5,35.85 L326.5,159.05 L305.3,159.05 L305.3,149.15 C299.5,154.95 291.6,160.75 279.4,160.75 C262.4,160.75 254.6,150.55 254.6,133.15 L254.6,104.35 Z M305.3,132.55 L305.3,80.85 L286.1,88.45 C278.3,91.65 275.8,95.75 275.8,104.75 L275.8,128.55 C275.8,136.15 279.4,139.85 286.1,139.85 C292.5,139.85 298.4,137.55 305.3,132.55 L305.3,132.55 Z" id="Fill-3"></path>
            <path d="M412.1,159.05 L390.9,159.05 L390.9,32.65 C390.9,24.85 387.3,21.35 380.9,21.35 C375.1,21.35 368.9,23.65 361.4,29.15 L361.4,159.05 L340.2,159.05 L340.2,2.15 L361.4,2.15 L361.4,12.35 C367.6,6.25 375.6,0.35 387.3,0.35 C398.2,0.35 405.4,5.05 409.3,13.15 C416.9,6.45 425.8,0.35 438,0.35 C454.4,0.35 462.8,10.85 462.8,27.95 L462.8,158.95 L441.6,158.95 L441.6,32.65 C441.6,24.85 438,21.35 431.6,21.35 C425.8,21.35 419.6,23.65 412.1,29.15 L412.1,159.05" id="Fill-4"></path>
            <polyline id="Fill-5" points="0 70.55 0 91.75 54.4 145.05 54.4 115.55 18.8 80.85 54.4 45.45 54.4 16.55 0 70.55"></polyline>
            <polyline id="Fill-6" points="489.7 45.45 525.3 80.85 489.7 115.65 489.7 145.05 544.1 91.75 544.1 70.55 489.7 16.55 489.7 45.45"></polyline>
        </g>
    </g>
</svg>