<?xml version="1.0" encoding="iso-8859-1"?>
<!-- Generator: Adobe Illustrator 18.1.1, SVG Export Plug-In . SVG Version: 6.00 Build 0)  -->
<svg xmlns="http://www.w3.org/2000/svg" xmlns:xlink="http://www.w3.org/1999/xlink" version="1.1" id="Capa_1" x="0px" y="0px" viewBox="0 0 31.996 31.996" style="enable-background:new 0 0 31.996 31.996;" xml:space="preserve" width="512px" height="512px">
<g>
	<g id="heart">
		<path d="M29.189,4.762c-3.629-3.596-9.432-3.671-13.191-0.288c-3.76-3.383-9.561-3.308-13.192,0.288    c-3.741,3.704-3.741,9.709,0,13.415c1.069,1.059,11.053,10.941,11.053,10.941c1.183,1.172,3.096,1.172,4.278,0    c0,0,10.932-10.822,11.053-10.941C32.932,14.471,32.932,8.466,29.189,4.762z M27.764,16.765L16.711,27.706    c-0.393,0.391-1.034,0.391-1.425,0L4.233,16.765c-2.95-2.92-2.95-7.671,0-10.591c2.844-2.815,7.416-2.914,10.409-0.222l1.356,1.22    l1.355-1.22c2.994-2.692,7.566-2.594,10.41,0.222C30.713,9.093,30.713,13.844,27.764,16.765z" fill="#cc9800"/>
		<path d="M9.249,6.998c-0.002,0-0.002,0.001-0.004,0.001C6.9,7.001,4.999,8.902,4.999,11.248l0,0    c0,0.276,0.224,0.5,0.5,0.5s0.5-0.224,0.5-0.5v-0.001c0-1.794,1.455-3.249,3.249-3.249h0.001c0.276,0,0.5-0.224,0.5-0.5    S9.526,6.998,9.249,6.998z" fill="#cc9800"/>
	</g>
</g>
<g>
</g>
<g>
</g>
<g>
</g>
<g>
</g>
<g>
</g>
<g>
</g>
<g>
</g>
<g>
</g>
<g>
</g>
<g>
</g>
<g>
</g>
<g>
</g>
<g>
</g>
<g>
</g>
<g>
</g>
</svg>
