<svg xmlns="http://www.w3.org/2000/svg" width="30" height="25" viewBox="0 0 30 25">
  <defs>
    <style>
      .cls-1 {
        fill: #6d6e71;
        fill-rule: evenodd;
      }
    </style>
  </defs>
  <path id="icon" class="cls-1" d="M26.33,24.271H4.311a3.654,3.654,0,0,1-3.67-3.638V4.261A3.654,3.654,0,0,1,4.311.623H26.33A3.654,3.654,0,0,1,30,4.261V20.633A3.654,3.654,0,0,1,26.33,24.271ZM5.229,2.442l10.092,8.7,10.092-8.7H5.229ZM28.165,4.261a1.8,1.8,0,0,0-.583-1.323L15.321,13.357,3.06,2.937a1.8,1.8,0,0,0-.583,1.323V20.633a1.827,1.827,0,0,0,1.835,1.819H26.33a1.827,1.827,0,0,0,1.835-1.819V4.261Z"/>
</svg>
