<svg xmlns="http://www.w3.org/2000/svg" width="26" height="34" viewBox="0 0 26 34">
  <defs>
    <style>
      .cls-1 {
        fill: #1faae2;
        fill-rule: evenodd;
      }
    </style>
  </defs>
  <path id="icon" class="cls-1" d="M13.46,33.995C11.386,34.006.983,18.078,0.983,12.748A12.615,12.615,0,0,1,13.46,0,12.615,12.615,0,0,1,25.938,12.748C25.938,18.007,15.5,34.006,13.46,33.995Zm0-31.87a10.512,10.512,0,0,0-10.4,10.623c0,4.442,8.669,18.069,10.4,18.06,1.7,0.009,10.4-13.677,10.4-18.06A10.512,10.512,0,0,0,13.46,2.125Zm0,15.935a5.313,5.313,0,1,1,5.2-5.312A5.256,5.256,0,0,1,13.46,18.06Zm0-8.5a3.188,3.188,0,1,0,3.119,3.187A3.154,3.154,0,0,0,13.46,9.561Z"/>
</svg>
