<svg xmlns="http://www.w3.org/2000/svg" width="25" height="25" viewBox="0 0 25 25">
  <defs>
    <style>
      .cls-1 {
        fill: #6d6e71;
        fill-rule: evenodd;
      }
    </style>
  </defs>
  <path id="icon" class="cls-1" d="M17.887,15.53l6.583,6.583L22.113,24.47,15.53,17.887Zm-3.72-3.863A5.833,5.833,0,1,1,8.333,17.5,5.833,5.833,0,0,1,14.167,11.667ZM10.833,0A10.833,10.833,0,1,1,0,10.833,10.833,10.833,0,0,1,10.833,0Zm0,3.333a7.5,7.5,0,1,1-7.5,7.5A7.5,7.5,0,0,1,10.833,3.334Zm12.5,18.333a1.667,1.667,0,1,1-1.667,1.667A1.667,1.667,0,0,1,23.333,21.667Z"/>
</svg>
