<svg xmlns="http://www.w3.org/2000/svg" width="28" height="29" viewBox="0 0 28 29">
  <defs>
    <style>
      .cls-1 {
        fill: #6d6e71;
        fill-rule: evenodd;
      }
    </style>
  </defs>
  <path id="icon" class="cls-1" d="M3.413,0.606l-2.581,2.6c-1.426,1.436-.74,3.15,0,5.2A61.4,61.4,0,0,0,8.97,19.12a55.13,55.13,0,0,0,10.577,8.136c1.883,0.976,3.737,1.436,5.163,0l2.582-2.6a1.722,1.722,0,0,0,0-2.6l-5.163-3.9a1.934,1.934,0,0,0-2.581,0h0L18.02,19.694a51.829,51.829,0,0,1-5.572-4.788A44.851,44.851,0,0,1,8.286,10l1.58-1.591a1.969,1.969,0,0,0,0-2.6l-3.872-5.2a1.816,1.816,0,0,0-2.581,0m2.5,9.179L7.989,7.7a1.253,1.253,0,0,0,0-1.654L5.525,2.733a1.043,1.043,0,0,0-1.643,0L2.239,4.388C1.6,5,1.781,6.421,2.122,7.106a54.83,54.83,0,0,0,7.745,10.4c3.268,3.57,10.971,8.45,10.971,8.45a3.272,3.272,0,0,0,2.7-.118l1.643-1.655a1.25,1.25,0,0,0,0-1.654l-3.286-2.482a1.231,1.231,0,0,0-1.643,0l-2.024,2.039C17.75,21.747,10.146,16.714,5.915,9.785Z"/>
</svg>
