<?xml version="1.0"?>
<svg xmlns="http://www.w3.org/2000/svg" height="512px" viewBox="-47 0 512 512.00161" width="512px" class=""><g transform="matrix(1, -2.44929e-16, 2.44929e-16, 1, -5, 5.80681e-14)"><path d="m8.535156 426.667969c-4.710937 0-8.535156-3.816407-8.535156-8.535157v-341.332031c0-42.351562 34.449219-76.800781 76.800781-76.800781h332.800781c4.710938 0 8.53125 3.8125 8.53125 8.535156v341.332032c0 4.71875-3.820312 8.53125-8.53125 8.53125h-332.800781c-32.9375 0-59.734375 26.804687-59.734375 59.734374 0 4.71875-3.820312 8.535157-8.53125 8.535157zm68.265625-409.601563c-32.9375 0-59.734375 26.804688-59.734375 59.734375v293.109375c14.089844-17.414062 35.636719-28.578125 59.734375-28.578125h324.265625v-324.265625zm0 0" data-original="#000000" class="active-path" data-old_color="#000000" fill="#78829D"/><path d="m136.535156 426.667969h-59.734375c-4.710937 0-8.535156-3.816407-8.535156-8.535157s3.824219-8.53125 8.535156-8.53125h59.734375c4.710938 0 8.53125 3.8125 8.53125 8.53125s-3.820312 8.535157-8.53125 8.535157zm0 0" data-original="#000000" class="active-path" data-old_color="#000000" fill="#78829D"/><path d="m238.933594 426.667969h-51.199219c-4.710937 0-8.535156-3.816407-8.535156-8.535157s3.824219-8.53125 8.535156-8.53125h51.199219c4.710937 0 8.535156 3.8125 8.535156 8.53125s-3.824219 8.535157-8.535156 8.535157zm0 0" data-original="#000000" class="active-path" data-old_color="#000000" fill="#78829D"/><path d="m409.601562 426.667969h-42.667968c-4.710938 0-8.53125-3.816407-8.53125-8.535157s3.820312-8.53125 8.53125-8.53125h42.667968c4.710938 0 8.53125 3.8125 8.53125 8.53125s-3.820312 8.535157-8.53125 8.535157zm0 0" data-original="#000000" class="active-path" data-old_color="#000000" fill="#78829D"/><path d="m8.535156 426.667969c-4.710937 0-8.535156-3.816407-8.535156-8.535157v-341.332031c0-38.5625 28.886719-71.289062 67.199219-76.136719 2.425781-.289062 4.875.445313 6.707031 2.066407 1.84375 1.621093 2.894531 3.949219 2.894531 6.398437v341.335938c0 4.300781-3.199219 7.925781-7.464843 8.464844-29.800782 3.769531-52.269532 29.21875-52.269532 59.203124 0 4.71875-3.820312 8.535157-8.53125 8.535157zm51.199219-407.042969c-24.890625 7.433594-42.667969 30.507812-42.667969 57.175781v293.179688c10.609375-13.117188 25.480469-22.742188 42.667969-26.667969zm0 0" data-original="#000000" class="active-path" data-old_color="#000000" fill="#78829D"/><path d="m8.535156 196.265625c-4.710937 0-8.535156-3.8125-8.535156-8.53125v-52.394531c0-38.570313 28.886719-71.296875 67.199219-76.144532 2.425781-.273437 4.875.445313 6.707031 2.074219 1.84375 1.613281 2.894531 3.949219 2.894531 6.398438v52.40625c0 4.300781-3.199219 7.925781-7.464843 8.464843-29.800782 3.761719-52.269532 29.207032-52.269532 59.195313 0 4.71875-3.820312 8.53125-8.53125 8.53125zm51.199219-118.109375c-24.890625 7.433594-42.667969 30.515625-42.667969 57.183594v4.238281c10.609375-13.113281 25.480469-22.738281 42.667969-26.664063zm0 0" data-original="#000000" class="active-path" data-old_color="#000000" fill="#78829D"/><path d="m8.535156 333.398438c-4.710937 0-8.535156-3.816407-8.535156-8.535157v-52.394531c0-38.5625 28.886719-71.285156 67.199219-76.132812 2.433593-.28125 4.875.441406 6.71875 2.0625 1.832031 1.613281 2.882812 3.953124 2.882812 6.402343v52.394531c0 4.300782-3.199219 7.925782-7.464843 8.464844-29.800782 3.761719-52.269532 29.226563-52.269532 59.203125 0 4.71875-3.820312 8.535157-8.53125 8.535157zm51.199219-118.109376c-24.890625 7.429688-42.667969 30.503907-42.667969 57.171876v4.25c10.609375-13.125 25.480469-22.75 42.667969-26.675782zm0 0" data-original="#000000" class="active-path" data-old_color="#000000" fill="#78829D"/><path d="m187.734375 512c-2.21875 0-4.402344-.871094-6.035156-2.5l-19.566407-19.566406-19.566406 19.566406c-2.441406 2.441406-6.117187 3.175781-9.300781 1.851562-3.183594-1.3125-5.265625-4.4375-5.265625-7.886718v-85.332032c0-4.71875 3.824219-8.53125 8.535156-8.53125h51.199219c4.710937 0 8.53125 3.8125 8.53125 8.53125v85.332032c0 3.449218-2.082031 6.574218-5.261719 7.886718-1.058594.445313-2.167968.648438-3.269531.648438zm-25.601563-42.667969c2.1875 0 4.371094.835938 6.035157 2.5l11.03125 11.035157v-56.199219h-34.132813v56.199219l11.035156-11.035157c1.664063-1.664062 3.847657-2.5 6.03125-2.5zm0 0" data-original="#000000" class="active-path" data-old_color="#000000" fill="#78829D"/><path d="m409.601562 460.800781h-221.867187c-4.710937 0-8.535156-3.816406-8.535156-8.535156v-25.597656h-34.132813v25.597656c0 4.71875-3.820312 8.535156-8.53125 8.535156h-59.734375c-23.527343 0-42.667969-19.140625-42.667969-42.667969 0-23.527343 19.140626-42.667968 42.667969-42.667968h332.800781c4.710938 0 8.53125 3.816406 8.53125 8.535156v68.265625c0 4.71875-3.820312 8.535156-8.53125 8.535156zm-213.335937-17.066406h204.800781v-51.199219h-324.265625c-14.113281 0-25.601562 11.484375-25.601562 25.597656 0 14.113282 11.488281 25.601563 25.601562 25.601563h51.199219v-25.601563c0-4.71875 3.824219-8.53125 8.535156-8.53125h51.199219c4.710937 0 8.53125 3.8125 8.53125 8.53125zm0 0" data-original="#000000" class="active-path" data-old_color="#000000" fill="#78829D"/><path d="m409.601562 494.933594h-221.867187c-4.710937 0-8.535156-3.816406-8.535156-8.535156v-59.730469h-34.132813v59.730469c0 4.71875-3.820312 8.535156-8.53125 8.535156h-59.734375c-42.351562 0-76.800781-34.449219-76.800781-76.800782 0-42.351562 34.449219-76.800781 76.800781-76.800781h332.800781c4.710938 0 8.53125 3.816407 8.53125 8.535157v136.53125c0 4.71875-3.820312 8.535156-8.53125 8.535156zm-213.335937-17.066406h204.800781v-119.46875h-324.265625c-32.9375 0-59.734375 26.804687-59.734375 59.734374 0 32.929688 26.796875 59.734376 59.734375 59.734376h51.199219v-59.734376c0-4.71875 3.824219-8.53125 8.535156-8.53125h51.199219c4.710937 0 8.53125 3.8125 8.53125 8.53125zm0 0" data-original="#000000" class="active-path" data-old_color="#000000" fill="#78829D"/><path d="m358.402344 358.398438h-34.136719c-4.707031 0-8.53125-3.8125-8.53125-8.53125v-341.332032c0-4.722656 3.824219-8.535156 8.53125-8.535156h34.136719c4.707031 0 8.53125 3.8125 8.53125 8.535156v341.332032c0 4.71875-3.824219 8.53125-8.53125 8.53125zm-25.601563-17.066407h17.066407v-324.265625h-17.066407zm0 0" data-original="#000000" class="active-path" data-old_color="#000000" fill="#78829D"/><path d="m230.402344 170.667969h-119.46875c-4.710938 0-8.53125-3.816407-8.53125-8.535157s3.820312-8.53125 8.53125-8.53125h119.46875c4.707031 0 8.53125 3.8125 8.53125 8.53125s-3.824219 8.535157-8.53125 8.535157zm0 0" data-original="#000000" class="active-path" data-old_color="#000000" fill="#78829D"/><path d="m281.601562 170.667969h-17.066406c-4.710937 0-8.535156-3.816407-8.535156-8.535157s3.824219-8.53125 8.535156-8.53125h17.066406c4.710938 0 8.53125 3.8125 8.53125 8.53125s-3.820312 8.535157-8.53125 8.535157zm0 0" data-original="#000000" class="active-path" data-old_color="#000000" fill="#78829D"/><path d="m281.601562 204.800781h-119.46875c-4.710937 0-8.53125-3.816406-8.53125-8.535156s3.820313-8.53125 8.53125-8.53125h119.46875c4.710938 0 8.53125 3.8125 8.53125 8.53125s-3.820312 8.535156-8.53125 8.535156zm0 0" data-original="#000000" class="active-path" data-old_color="#000000" fill="#78829D"/><path d="m128 204.800781h-17.066406c-4.710938 0-8.53125-3.816406-8.53125-8.535156s3.820312-8.53125 8.53125-8.53125h17.066406c4.710938 0 8.535156 3.8125 8.535156 8.53125s-3.824218 8.535156-8.535156 8.535156zm0 0" data-original="#000000" class="active-path" data-old_color="#000000" fill="#78829D"/><path d="m324.265625 247.464844h-256c-4.707031 0-8.53125-3.8125-8.53125-8.53125v-119.46875c0-4.71875 3.824219-8.53125 8.53125-8.53125h256c4.710937 0 8.535156 3.8125 8.535156 8.53125v119.46875c0 4.71875-3.824219 8.53125-8.535156 8.53125zm-247.464844-17.066406h238.933594v-102.398438h-238.933594zm0 0" data-original="#000000" class="active-path" data-old_color="#000000" fill="#78829D"/><path d="m409.601562 247.464844h-51.199218c-4.710938 0-8.535156-3.8125-8.535156-8.53125v-119.46875c0-4.71875 3.824218-8.53125 8.535156-8.53125h51.199218c4.710938 0 8.53125 3.8125 8.53125 8.53125v119.46875c0 4.71875-3.820312 8.53125-8.53125 8.53125zm-42.667968-17.066406h34.132812v-102.398438h-34.132812zm0 0" data-original="#000000" class="active-path" data-old_color="#000000" fill="#78829D"/></g> </svg>
