<?xml version="1.0"?>
<svg xmlns="http://www.w3.org/2000/svg" xmlns:xlink="http://www.w3.org/1999/xlink" version="1.1" id="Capa_1" x="0px" y="0px" width="512px" height="512px" viewBox="0 0 572.223 572.223" style="enable-background:new 0 0 572.223 572.223;" xml:space="preserve" class=""><g><g>
	<g>
		<path d="M5.815,228.444c-0.952,4.657-1.793,9.354-2.516,14.088c-0.722,4.737-1.331,9.51-1.82,14.321    c-0.977,9.617-1.478,19.375-1.478,29.253c0,9.877,0.501,19.635,1.478,29.254c0.489,4.809,1.095,9.584,1.82,14.32    c0.722,4.734,1.564,9.434,2.516,14.088s2.02,9.271,3.194,13.84c2.354,9.141,5.144,18.107,8.354,26.871    c1.604,4.381,3.314,8.715,5.123,12.992c1.808,4.277,3.721,8.504,5.728,12.674c1.004,2.084,2.035,4.156,3.088,6.213    c2.105,4.111,4.308,8.166,6.606,12.16c6.891,11.982,14.624,23.418,23.118,34.229c4.248,5.404,8.684,10.652,13.302,15.734    c3.079,3.389,6.236,6.701,9.474,9.936c3.235,3.238,6.549,6.396,9.936,9.475c15.242,13.854,31.986,26.084,49.96,36.42    c3.994,2.295,8.048,4.502,12.161,6.607c8.225,4.213,16.68,8.037,25.343,11.455c4.33,1.709,8.715,3.314,13.146,4.814    c28.804,9.748,59.667,15.033,91.763,15.033c21.882,0,43.185-2.467,63.66-7.117c9.557-2.172,18.936-4.812,28.104-7.914    c4.432-1.498,8.812-3.105,13.146-4.812c8.662-3.414,17.117-7.242,25.342-11.457c4.113-2.105,8.168-4.309,12.16-6.605    c17.975-10.334,34.719-22.568,49.961-36.42c3.389-3.08,6.701-6.24,9.936-9.475s6.396-6.549,9.475-9.936    c4.617-5.08,9.055-10.328,13.301-15.734c6.721-8.551,12.947-17.5,18.674-26.793c1.514-2.457,3.004-4.93,4.445-7.438    c2.299-3.992,4.502-8.047,6.607-12.16c1.053-2.057,2.08-4.127,3.086-6.211c2.012-4.168,3.92-8.395,5.729-12.674    s3.52-8.611,5.123-12.994c3.209-8.764,6-17.729,8.354-26.869c1.176-4.572,2.244-9.186,3.195-13.84    c0.951-4.658,1.793-9.355,2.516-14.09c0.721-4.736,1.33-9.51,1.82-14.32c0.977-9.617,1.479-19.375,1.479-29.253    c0-9.877-0.502-19.636-1.479-29.253c-0.49-4.811-1.096-9.584-1.82-14.321c-0.723-4.734-1.564-9.434-2.516-14.088    s-2.02-9.272-3.195-13.84c-2.354-9.14-5.145-18.106-8.354-26.87c-0.801-2.191-1.631-4.37-2.484-6.537    c-2.562-6.496-5.355-12.876-8.369-19.131c-1.004-2.084-2.035-4.155-3.088-6.212c-2.105-4.112-4.309-8.167-6.607-12.16    c-6.891-11.983-14.623-23.418-23.117-34.229c-4.248-5.404-8.684-10.652-13.303-15.734c-3.078-3.387-6.236-6.701-9.473-9.936    c-3.234-3.238-6.549-6.396-9.936-9.474c-6.561-5.964-13.406-11.619-20.502-16.958c-9.389-7.065-19.223-13.574-29.459-19.461    c-3.994-2.295-8.049-4.501-12.16-6.606c-1.871-0.958-3.756-1.891-5.648-2.806c-2.271-1.099-4.557-2.179-6.861-3.219    c-0.965-0.435-1.939-0.848-2.906-1.273c-3.281-1.441-6.582-2.836-9.928-4.155c-0.045-0.019-0.094-0.034-0.141-0.055    c-3.564-1.401-7.172-2.72-10.805-3.984c-0.734-0.254-1.463-0.526-2.201-0.774c-8.473-2.867-17.125-5.337-25.932-7.408    c-2.752-0.649-5.516-1.267-8.297-1.836c-2.004-0.41-4.018-0.79-6.037-1.157c-15.049-2.736-30.508-4.284-46.279-4.566    C289.587,0.034,287.853,0,286.105,0c-2.965,0-5.918,0.061-8.862,0.15c-28.917,0.881-56.76,6.038-82.902,14.884    c-4.431,1.5-8.815,3.106-13.146,4.813c-1.34,0.529-2.662,1.083-3.993,1.631c-2.972,1.224-5.924,2.479-8.844,3.797    c-4.226,1.913-8.394,3.92-12.506,6.028c-4.113,2.105-8.167,4.309-12.161,6.606c-16.068,9.241-31.151,19.997-45.062,32.072    c-1.649,1.432-3.283,2.876-4.899,4.346c-3.388,3.078-6.702,6.239-9.936,9.474s-6.396,6.548-9.474,9.936    c-4.618,5.08-9.055,10.328-13.302,15.734c-8.495,10.808-16.228,22.247-23.119,34.229c-2.298,3.993-4.501,8.048-6.606,12.16    c-1.053,2.057-2.081,4.128-3.087,6.212c-3.014,6.255-5.805,12.635-8.369,19.131c-0.854,2.167-1.683,4.345-2.485,6.536    c-3.21,8.764-6,17.729-8.354,26.87C7.834,219.172,6.767,223.79,5.815,228.444z M237.628,19.651c0.56,0.949,1.028,2.044,2.396,2.46    c2.678-1.387,5.349,0.092,8.299,0c2.874-0.101,5.441-1.417,8.608-0.921c5.597,0.875,13.415,6.347,17.825,3.378    c1.11-0.75,0.847-2.044,1.848-3.99c0.798-1.555,2.044-3.277,2.809-5.193c2.228-0.055,4.458-0.086,6.698-0.086    c18.503,0,36.58,1.87,54.052,5.422c-0.732,1.928-3.137,1.068-5.154,2.001c-1.893,0.878-2.6,2.69-4.611,3.069    c-5.59,1.053-10.223-1.401-15.061-1.224c-0.227,2.093,2.391,3.311,3.688,3.984c4.385,2.298,7.955,1.983,14.137,1.845    c3.168-0.07,6.809,0.946,9.531-0.924c1.725-1.178,1.633-3.773,3.076-5.214c0.615-0.609,1.518-1.221,2.537-1.741    c3.035,0.716,6.049,1.493,9.049,2.31c-0.506,2.069-3.855,1.57-3.898,4.342c2.139,1.282,7.111-0.701,9.033-2.889    c0.742,0.22,1.49,0.441,2.23,0.664c4.348,1.322,8.65,2.748,12.904,4.278c6.064,2.185,12.025,4.581,17.881,7.176    c-1.125,0.664-2.324,1.515-3.312,1.509c-2.541-0.016-3.627-3.409-6.461-2.154c-0.246,3.286,3.48,4.617,5.84,6.135    c2.555,1.643,5.238,3.28,6.146,6.138c-2.5,5.3-6.49-0.278-10.449-0.303c-4.363-0.031-10.729,8.29-14.447,1.533    c0.926-3.581,4.875-4.137,5.84-7.672c-0.848,0.144-1.668,0.419-2.484,0.747c-1.461,0.578-2.902,1.358-4.393,2.16    c-1.957,1.053-4.012,2.099-6.342,2.619c-2.143,0.472-4.232,0.358-6.148,0.915c-3.678,1.077-6.248,3.789-10.139,5.224    c-1.52,0.557-3.338,0.385-4.92,0.915c-3.711,1.239-8.158,3.455-11.986,5.526c-3.914,2.114-8.328,4.336-10.758,6.444    c-1.312,1.132-4.729,5.159-4.611,6.438c0.156,1.827,3.602,2.433,3.688,4.299c-0.078,1.132-1.996,3.574-0.613,5.217    c1.258,1.497,3.779,0.285,6.451,0.612c4.697,0.582,7.77,4.456,11.373,6.444c2.725,1.503,6.77,3.293,9.846,3.682    c4.223,0.529,8.949-1.23,9.525,2.148c0.559,3.247-3.975,4.406-4.301,6.444c2.275,2.999-1.545,4.431-1.535,7.06    c0.01,2.129,2.623,5.324,4.914,5.517c3.098,0.263,7.633-3.045,8.92-6.135c1.529-3.681,0.879-8.672,3.688-11.353    c14.324,0.395,26.441-6.494,25.518-21.169c-0.092-1.45-0.916-3.317-0.611-4.911c0.449-2.372,4.533-4.363,3.99-7.362    c1.545-0.475,2.469-1.723,3.258-3.127c1.178-2.093,2.096-4.483,4.285-5.272c0.154-0.058,0.281-0.156,0.451-0.193    c1.252-0.281,2.564-0.033,3.941,0.374c2.455,0.725,5.117,1.974,8.045,1.775c1.49-0.101,3.424-1.435,4.922-1.224    c3.004,0.419,4.812,4.116,7.07,5.83c1.996,1.523,4.102,1.037,4.611,3.066c-0.59,3.406-2.961,3.534-2.77,6.662    c0.004,0.034-0.002,0.055-0.002,0.089c0.227,2.812,3.152,4.945,4.611,5.223c2.242,0.419,5.449-0.783,7.686-1.845    c2.416-1.141,4.621-3.607,6.73-5.321c3.014,2.311,5.979,4.679,8.893,7.108c0.332,1.365,0.564,2.595,0.672,3.427    c0.43,3.317-0.449,5.851-0.303,8.905c0.395,5.174,6.926,4.648,10.139,7.359c0.969,0.823,1.35,2.922,2.156,3.99    c1.561,2.078,3.445,2.078,3.688,4.293c0.576,5.3-4.812,5.747-4.309,11.662c-1.111,2.292-3.914,2.154-3.688,5.214    c0.359,4.844,7.33,1.132,9.223,4.911c1.025,2.032-0.17,3.543-0.924,6.438c2.385,2.836,2.369,7.362-1.838,7.368    c-2.557,0-3.262-2.742-5.846-3.378c-1.436-0.358-3.393-0.288-5.223-0.612c-1.566-0.278-3.43-0.743-4.914-0.921    c-3.795-0.45-7.904,0.652-10.148-1.533c3.658-4.85,8.518-9.63,13.221-13.807c1.398-1.249,4.4-2.102,3.688-4.602    c-2.617-2.295-5.83,0.141-8.299,1.533c-2.592,1.457-5.684,3.556-8.609,3.99c-5.084,0.753-11.828-1.487-15.982,1.224    c-0.574,2.316,4.729,1.417,3.99,4.912c-2.033,0.333-3.959,0.496-5.525-0.924c-1.43-1.285-0.611-3.216-1.537-3.99    c-1.574-1.304-7.5-1.659-10.146-1.224c-3.229,0.526-6.086,2.457-6.459,5.214c3.879,1.814,10.277-1.867,11.684,2.766    c-2.127,3.819-7.133,5.921-6.461,11.041c0.264,1.977,2.617,4.618,4.309,4.912c1.701,0.293,2.656-1.39,4.299-1.233    c1.738,0.162,1.344,2.145,3.385,1.845c2.959-1.261,4.596-5.407,7.986-5.214c4.068,4.93-3.672,7.332-7.986,8.896    c-4.92,1.781-11.318,2.727-15.066,4.302c-1.965,0.82-9.4,7.996-10.451,2.448c-0.752-4,3.68-2.843,4.611-6.135    c-4.758-0.924-9.191,2.044-13.521,3.69c-6.178,2.332-16.652,3.81-18.143,10.738c-0.293,1.386,0.605,3.981-0.303,4.905    c-0.738,0.743-5.146,0.878-7.072,1.533c-2.965,1.016-5.551,3.186-7.383,3.681c-1.383,0.38-3.424,0.272-4.301,0.622    c-2.443,0.945-3.344,4.244-6.146,6.438c-1.148,0.896-3.697,1.548-4.611,2.454c-1.592,1.582-1.803,5.542-4.611,6.135    c-1.785,0.156-3.238-1.34-4.92-0.309c-0.203,3.914,1.383,9.238-0.305,13.195c-3.641,2.962-7.637,5.058-12.295,7.671    c-2.576,1.451-4.883,1.821-7.994,3.378c-2.207,1.099-4.225,3.718-6.764,5.214c-5.869,3.448-12.955,7.53-12.91,16.264    c0.01,1.891,0.986,3.929,1.227,6.138c0.148,1.301-0.156,2.571,0,3.99c0.365,3.207,2.693,7.292,0,9.508    c-4.137-1.695-9.4-2.271-12.294-5.214c-0.793-3.029,1.601-5.526,1.234-8.284c-0.295-2.215-3.416-6.163-5.233-6.447    c-1.87-0.294-3.595,1.689-5.526,1.533c-2.298-0.181-4.434-3.338-7.384-3.681c-4.324-0.505-7.506,0.985-12.295,0.312    c-4.636,2.472-5.992,6.873-11.674,6.438c-2.001-0.146-3.834-1.674-6.147-2.148c-2.506-0.517-6.31-1.401-8.92-1.221    c-5.233,0.349-9.027,4.107-13.522,6.438c-3.966,2.062-9.581,4.627-10.759,8.901c-0.646,2.301-0.101,5.542-0.924,7.671    c-0.544,1.402-1.732,2.65-2.46,3.981c-3.446,6.285-6.304,14.593-3.688,23.633c0.389,1.34,3.813,8.904,5.224,10.432    c1.585,1.697,6.249,4.246,8.911,4.293c2.252,0.045,4.89-1.143,7.072-1.533c2.53-0.449,5.698-0.49,7.996-1.225    c6.646-2.123,5.333-11.096,11.986-14.119c2.904-1.31,6.264-1.573,11.371-1.836c1.622,1.362,2.384,3.751,2.157,5.826    c-0.171,1.566-1.662,2.986-2.46,5.219c-0.698,1.957-0.845,4.252-1.536,5.832c-0.915,2.068-2.956,3.58-3.688,5.525    c-0.48,1.264-0.217,2.838-0.612,3.982c-0.707,2.021-3.415,3.447-2.157,5.525c6.582,2.613,14.547-0.744,20.291,0.312    c2.424,0.439,7.42,3.328,7.375,7.059c-0.03,2.789-2.157,4.617-2.46,7.672c-0.374,3.84-1.98,8.547-2.151,11.656    c-0.272,5.092,7.482,13.877,12.91,13.807c5.844-0.076,9.253-5.803,16.294-2.758c2.338,1.008,4.805,4.789,7.385,4.602    c2.127-0.152,5.34-3.873,6.762-6.447c1.732-3.137,1.855-5.779,4.914-7.361c3.299-1.705,5.926-0.885,10.148-2.457    c1.885-0.697,3.525-1.898,5.223-3.07c1.49-1.021,3.061-3.701,4.92-1.844c2.455,2.447-3.004,3.828-0.924,6.447    c4.264,2.254,6.445-4.193,9.533-4.291c0.984-0.031,4.393,1.912,6.146,3.066c2.398,1.572,3.213,3.781,5.838,4.293    c1.684,0.334,4.395-0.643,6.764-0.309c3.137,0.447,5.006,3.137,7.383,3.066c2.895-0.076,4.285-3.223,6.764-3.682    c5.426-0.992,7.445,0.605,9.834,3.99c2.678,0.463,2.773-3.09,5.225-1.836c-1.344,2.674,0.459,3.904,1.535,6.135    c0.697,1.432,0.582,2.449,1.234,3.07c1.465,1.395,4.299,1.395,6.449,2.756c2.268,1.426,3.547,4.076,6.148,7.061    c2.678,3.053,7.182,6.215,10.758,6.438c3.379,0.217,6.127-0.955,8.92-0.611c6.359,0.779,10.311,3.949,14.76,7.367    c2.484,1.906,4.727,3.232,5.525,5.518c0.561,1.594,0.287,3.734,0.924,5.523c1.359,3.822,6.941,5.668,4.922,12.273    c0.924,1.938,2.994,2.635,5.223,3.99c1.783,1.084,3.293,3.373,5.223,3.682c1.25,0.201,2.607-0.379,3.688-0.309    c3.494,0.24,5.891,1.594,8.92,2.766c1.879,0.723,4.285,1,5.535,1.846c1.561,1.053,1.764,4.586,3.688,5.518    c1.258,0.611,4.053-0.234,6.148,0c3.299,0.379,7.777,2.4,10.758,2.457c1.809,0.039,3.309-0.738,4.916-0.613    c3.732,0.285,6.664,2.641,9.559,5.273c-37.031,59.699-96.607,104.006-166.754,120.938c-0.258-2.689-1.002-5.395-1.121-8.076    c-0.242-5.832,0.646-9.953-0.303-15.342c-0.713-4.076-1.6-10.322-3.074-12.887c-1.646-2.852-8.113-7.701-11.371-9.514    c-2.152-1.193-4.729-1.611-7.072-2.76c-5.006-2.455-14.709-7.631-16.906-12.582c-0.637-1.426-0.551-3.314-1.234-4.906    c-1.334-3.145-4.152-5.871-6.146-8.904c-3.797-5.787-6.863-13.047-10.76-19.023c-1.971-3.035-3.678-6.479-5.838-8.896    c-1.267-1.426-5.318-2.766-5.838-4.91c-0.692-2.838-2.794-6.732-2.46-8.904c0.444-2.93,6.157-5.301,6.148-7.973    c-0.01-2.27-3.051-3.596-3.688-5.523c-1.552-4.689,0.909-7.447,2.763-11.352c0.612-1.285,1.211-3.348,1.848-4.293    c1.126-1.689,3.415-2.164,4.915-3.99c0.838-1.023,1.367-3.156,2.461-4.604c2.336-3.1,6.109-4.262,7.07-7.059    c0.783-2.279,1.242-13.676,0.303-17.488c-0.535-2.209-2.592-4.045-3.377-6.135c-1.391-3.703-1.717-7.752-5.537-7.672    c-2.357,0.049-4.02,2.65-5.535,4.293c-0.364,2.186-0.171,4.547-2.46,5.215c-3.494,1.031-4.834-3.672-8.911-4.906    c-1.622-0.494-4.208-0.465-5.223-0.92c-2.975-1.334-3.935-5.68-7.072-7.369c-2.623-1.4-4.869-0.914-6.459-3.068    c-0.661-1.482-0.141-4.152-0.303-6.137c-3.369-1.967-6.224-9.307-10.147-11.039c-2.601-1.154-6.582-1.047-9.835-2.148    c-1.53-0.518-2.708-1.188-4.308-1.533c-1.971-0.441-4-0.465-5.526-1.23c-6.086-3.014-9.37-12.785-16.907-12.576    c-3.213,0.082-6.31,3.084-9.223,3.066c-2.895-0.016-7.748-2.307-11.38-3.99c-3.773-1.75-7.95-2.705-11.062-4.293    c-2.516-1.285-4.263-3.637-6.46-4.611c-1.683-0.744-4.146-0.875-5.526-1.527c-1.964-0.93-4.015-2.914-6.459-4.611    c-2.32-1.604-4.829-4.053-4.92-6.129c-0.101-2.402,2.212-4.447,2.46-6.757c0.792-7.307-4.602-12.558-7.996-16.875    c-2.515-3.207-5.465-5.927-7.987-8.896c0.141-1.971,0.141-2.326,0-4.293c-1.909-1.851-3.516-4.596-5.535-7.368    c-1.824-2.5-5.38-5.168-5.839-7.972c-0.566-3.448,1.313-6.478,0-9.825c-2.188-5.554-9.914-3.045-8.92,4.299    c0.279,2.023,3.137,4.743,4,6.75c0.884,2.047,0.713,4.596,1.536,7.06c0.792,2.362,3.176,4.4,4,7.06    c1.304,4.201,1.264,8.727,2.46,11.353c1.056,2.332,4.945,4.538,2.764,7.362c-2.91,0.603-4.03-2.301-5.839-3.99    c-1.01-0.939-4.667-2.72-5.223-4.905c-0.465-1.805,1.147-4.238,0.612-6.447c-1.056-4.33-9.813-4.44-9.844-8.896    c-0.016-2.797,3.663-3.13,3.696-5.835c0.024-2.959-4.045-5.465-4.92-7.975c-0.799-2.301-0.93-5.967-1.227-9.204    c-0.288-3.039,0.085-6.558-0.621-8.902c-0.63-2.108-3.804-5.006-5.839-6.138c-2.692-1.496-4.829-0.875-6.147-3.066    c-1.147-1.913-1.903-5.912-2.151-7.975c-0.444-3.69-0.101-7.724-0.309-11.662c-0.202-3.944-0.606-7.727,0-11.965    c1.521-2.968,4.293-4.431,5.844-7.371c1.081-2.044,1.233-4.572,2.454-6.748c2.252-4.008,7.158-7.711,10.456-11.662    c3.556-4.256,6.83-8.333,8.911-13.198c0.747-1.726,2.748-5.554,2.46-7.671c-0.404-2.95-5.976-5.383-5.536-8.896    c0.279-2.176,3.384-2.145,4.309-4.293c0.474-1.108,0.899-4.202,0.924-5.526c0.046-2.959-1.521-6.044-0.924-9.205    c0.505-2.696,4.526-3.789,2.46-6.75c-2.05-2.932-5.729,1.582-7.996-0.309c-2.081-1.744,0.419-3.85,0.612-7.059    c0.076-1.276-0.747-2.736-0.612-3.682c0.187-1.371,2.864-3.681,2.151-4.602c-1.111-1.405-2.326-4.241-4.064-6.505    C151.608,47.087,192.701,27.806,237.628,19.651z" data-original="#000000" class="active-path" data-old_color="#796D6D" fill="#78829D"/>
	</g>
</g></g> </svg>
