<?xml version="1.0"?>
<svg xmlns="http://www.w3.org/2000/svg" height="512px" viewBox="0 -39 479.9675 479" width="512px"><g><path d="m447.96875 40.484375h24c4.417969 0 8-3.582031 8-8v-24c0-4.417969-3.582031-8-8-8h-400c-33.246094-.007813-62.167969 22.761719-69.960938 55.082031-7.792968 32.316406 7.566407 65.769532 37.160157 80.917969-24.039063 12.285156-39.167969 37.003906-39.167969 64s15.128906 51.714844 39.167969 64c-29.59375 15.148437-44.953125 48.597656-37.160157 80.917969 7.792969 32.316406 36.714844 55.085937 69.960938 55.082031h400c4.417969 0 8-3.582031 8-8v-24c0-4.417969-3.582031-8-8-8h-24v-64h24c4.417969 0 8-3.582031 8-8v-48c0-4.417969-3.582031-8-8-8h-24v-64h24c4.417969 0 8-3.582031 8-8v-48c0-4.417969-3.582031-8-8-8h-24zm-16 24h-390.867188c3.640626-14.085937 16.320313-23.945313 30.867188-24h360zm-416 8c.035156-30.914063 25.085938-55.964844 56-56h392v8h-392c-26.511719 0-48 21.488281-48 48 0 26.507813 21.488281 48 48 48h392v8h-392c-30.914062-.035156-55.964844-25.085937-56-56zm0 128c.035156-30.914063 25.085938-55.964844 56-56h392v8h-392c-26.511719 0-48 21.488281-48 48 0 26.507813 21.488281 48 48 48h392v8h-392c-30.914062-.035156-55.964844-25.085937-56-56zm56 160c-14.546875-.054687-27.226562-9.914063-30.867188-24h390.867188v24zm0-64h360v24h-390.867188c3.640626-14.085937 16.320313-23.945313 30.867188-24zm368-16h-368c-26.511719 0-48 21.488281-48 48 0 26.507813 21.488281 48 48 48h392v8h-392c-30.929688 0-56-25.074219-56-56 0-30.929687 25.070312-56 56-56h392v8zm-368-48c-14.546875-.054687-27.226562-9.914063-30.867188-24h390.867188v24zm360-40h-390.867188c3.640626-14.085937 16.320313-23.945313 30.867188-24h360zm-360-88c-14.546875-.054687-27.226562-9.914063-30.867188-24h390.867188v24zm0 0" data-original="#000000" class="active-path" data-old_color="#000000" fill="#78829D"/></g> </svg>
